<?xml version="1.0" encoding="UTF-8"?>
<svg id="_レイヤー_1" data-name="レイヤー 1" xmlns="http://www.w3.org/2000/svg" viewBox="0 0 1920 1080">
  <defs>
    <style>
      .cls-1 {
        fill: #6400ff;
      }

      .cls-2 {
        fill: #00b4a0;
      }

      .cls-3 {
        fill: #7000ff;
      }

      .cls-4 {
        fill: #666;
      }
    </style>
  </defs>
  <path class="cls-2" d="M837.72,145.54h76v194.5l89-97.5h91l-102,105.5,105.5,162.5h-88l-68.5-110-27,28.5v81.5h-76V145.54Z"/>
  <g>
    <path class="cls-1" d="M827.59,601.66h234.9v61.7h-167.03v65.67h147.2v61.7h-147.2v119.43h-67.87v-308.5Z"/>
    <path class="cls-1" d="M1112.73,588.44h66.99v321.73h-66.99v-321.73Z"/>
    <path class="cls-1" d="M1231.28,793.37v-.88c0-67.87,54.65-122.96,128.25-122.96s127.37,54.21,127.37,122.08v.88c0,67.87-54.65,122.96-128.25,122.96s-127.37-54.21-127.37-122.08ZM1420.79,793.37v-.88c0-34.82-25.12-65.23-62.14-65.23s-61.26,29.53-61.26,64.34v.88c0,34.82,25.12,65.23,62.14,65.23s61.26-29.53,61.26-64.35Z"/>
    <path class="cls-1" d="M1504.96,673.94h67.87l37.9,143.23,44.51-144.12h57.73l44.95,144.56,38.78-143.67h66.55l-73.6,237.99h-60.38l-45.39-145-46.28,145h-59.94l-72.72-237.99Z"/>
  </g>
  <path class="cls-4" d="M1076.7,738.19c-52,63.2-114.4,100.8-189.6,100.8-98.4,0-168-65.6-168-148.8v-1.6c0-87.2,67.2-133.6,150.4-168.8-50.4-54.4-70.4-93.6-70.4-136v-1.6c0-61.6,50.4-120.8,132.8-120.8,74.4,0,125.6,55.2,125.6,116v1.6c0,63.2-42.4,106.4-144,148l162.4,172c28.8-40.8,52.8-88.8,76-148l24,8.8c-24,60.8-51.2,114.4-83.2,157.6l100,105.6-20,17.6-96-102.4ZM1059.9,720.59l-173.6-183.2c-80,32.8-140,75.2-140,150.4v1.6c0,68,56.8,125.6,140.8,125.6,67.2,0,125.6-36.8,172.8-94.4ZM1031.1,379.78v-1.6c0-48.8-40-93.6-100-93.6-64.8,0-104.8,47.2-104.8,96v1.6c0,36.8,16.8,72,70.4,128,97.6-39.2,134.4-76.8,134.4-130.4Z"/>
  <path class="cls-2" d="M171.72,231.54h-106.5v-71h290v71h-106.5v279h-77V231.54Z"/>
  <path class="cls-2" d="M402.72,145.54h80v67.5h-80v-67.5ZM404.72,242.54h76v268h-76V242.54Z"/>
  <path class="cls-2" d="M539.22,378.04v-1c0-76.5,58.5-139.5,140.5-139.5,50.5,0,82,17,107,45l-46.5,50c-17-18-34-29.5-61-29.5-38,0-65,33.5-65,73v1c0,41,26.5,74,68,74,25.5,0,43-11,61.5-28.5l44.5,45c-26,28.5-56,49-109.5,49-80.5,0-139.5-62-139.5-138.5Z"/>
  <polygon class="cls-3" points="945.04 729.06 895.46 729.06 895.46 663.39 945.04 663.39 945.04 601.69 827.59 601.69 827.59 910.2 895.46 910.2 895.46 790.76 945.04 790.76 945.04 729.06"/>
  <polygon class="cls-2" points="1002.72 242.54 913.72 340.04 913.72 145.54 837.72 145.54 837.72 355.95 996.85 355.95 991.72 348.04 1093.72 242.54 1002.72 242.54"/>
</svg>